<mxfile host="app.diagrams.net" modified="2023-07-24T12:19:20.428Z" agent="Mozilla/5.0 (X11; Ubuntu; Linux x86_64; rv:109.0) Gecko/20100101 Firefox/115.0" version="21.6.5" etag="MXpXMBd9dIBnV_Hojx8t" type="github">
  <diagram name="Page-1" id="D8UOQcXtp8LLg6BBmlaV">
    <mxGraphModel>
      <root>
        <mxCell id="0" />
        <mxCell id="1" parent="0" />
      </root>
    </mxGraphModel>
  </diagram>
</mxfile>
